<svg xmlns="http://www.w3.org/2000/svg" xmlns:xlink="http://www.w3.org/1999/xlink" width="20" height="19" version="1.1" viewBox="0 0 20 19"><title>icon-audio-outgoing</title><desc>Created with Sketch.</desc><g id="Page-1" fill="none" fill-rule="evenodd" stroke="none" stroke-width="1"><g id="-icons" transform="translate(-1095.000000, -469.000000)"><g id="icon-audio-outgoing" transform="translate(1095.000000, 469.000000)"><path id="Fill-35" fill="#A1DCA9" d="M19,6 L19,0 L13,0 L19,6"/><path id="Fill-36" fill="#DBDBDB" d="M8.722,10.959 C6.843,9.079 5.045,6.901 5.906,6.041 C7.138,4.809 8.211,4.049 6.028,1.332 C3.844,-1.384 2.389,0.702 1.195,1.896 C-0.182,3.273 1.122,8.408 6.197,13.484 C11.273,18.559 16.408,19.864 17.786,18.486 C18.98,17.292 21.065,15.837 18.349,13.654 C15.633,11.471 14.874,12.543 13.641,13.776 C12.78,14.636 10.603,12.839 8.722,10.959"/></g></g></g></svg>